<svg xmlns="http://www.w3.org/2000/svg" viewBox="0 0 18.72 18.67"><defs><style>.cls-1{fill:#ffd217;}.cls-2{fill:#efff00;}.cls-3{fill:#5e17ff;}.cls-4{fill:#b8ff17;}</style></defs><g id="Layer_2" data-name="Layer 2"><g id="Layer_1-2" data-name="Layer 1"><rect class="cls-1" width="16.41" height="16.35"/><rect class="cls-2" width="16.41" height="16.35"/><path class="cls-3" d="M5.92,11V9.89h4.15V11Zm.24-5.12V4.77H8.23l.12,1.09ZM7.31,11V4.77h1l.24,1.78V11ZM8.55,8.31,8.19,6.36h.48q.11-1.71,1.71-1.71a1.65,1.65,0,0,1,1.39.55A2.89,2.89,0,0,1,12.21,7H11a1.76,1.76,0,0,0-.21-1,.72.72,0,0,0-.65-.3,1.28,1.28,0,0,0-1.18.68A3.89,3.89,0,0,0,8.55,8.31Z"/><path class="cls-4" d="M13.47,11V2.19h1.24V11Zm3.82,0V6.93A1.34,1.34,0,0,0,17,6a1.08,1.08,0,0,0-.82-.32c-1,0-1.47.6-1.47,1.79l-.36-1.6h.48A1.23,1.23,0,0,1,15.29,5a1.89,1.89,0,0,1,1.18-.31,1.92,1.92,0,0,1,1.52.6,2.42,2.42,0,0,1,.54,1.68V11Z"/><path class="cls-3" d="M16.41,4.66a1.85,1.85,0,0,0-1.12.3,1.23,1.23,0,0,0-.46.93h-.12V2.19H13.47V11h1.24V7.49c0-1.19.49-1.79,1.47-1.79a1.85,1.85,0,0,1,.23,0Z"/><path class="cls-4" d="M9,18.67a2.45,2.45,0,0,1-2-.85,3.54,3.54,0,0,1-.72-2.38A3.56,3.56,0,0,1,7,13.06a2.47,2.47,0,0,1,2-.84,2.5,2.5,0,0,1,2,.84,3.61,3.61,0,0,1,.71,2.38A3.6,3.6,0,0,1,11,17.82,2.48,2.48,0,0,1,9,18.67Zm0-1.12A1.2,1.2,0,0,0,10,17a2.73,2.73,0,0,0,.37-1.56A2.77,2.77,0,0,0,10,13.88a1.3,1.3,0,0,0-2.12,0,2.85,2.85,0,0,0-.37,1.56A2.81,2.81,0,0,0,7.91,17,1.2,1.2,0,0,0,9,17.55Z"/><path class="cls-3" d="M9,12.22a2.47,2.47,0,0,0-2,.84,3.56,3.56,0,0,0-.72,2.38,6.29,6.29,0,0,0,.08.91H7.64a3.52,3.52,0,0,1-.1-.91,2.85,2.85,0,0,1,.37-1.56,1.3,1.3,0,0,1,2.12,0,2.77,2.77,0,0,1,.37,1.56,3.52,3.52,0,0,1-.1.91h1.31a5.14,5.14,0,0,0,.08-.91A3.61,3.61,0,0,0,11,13.06,2.5,2.5,0,0,0,9,12.22Z"/><path class="cls-4" d="M16,18.67a2.45,2.45,0,0,1-2-.85,3.54,3.54,0,0,1-.72-2.38A3.56,3.56,0,0,1,14,13.06a2.47,2.47,0,0,1,2-.84,2.49,2.49,0,0,1,2,.84,3.61,3.61,0,0,1,.71,2.38A3.6,3.6,0,0,1,18,17.82,2.47,2.47,0,0,1,16,18.67Zm0-1.12A1.2,1.2,0,0,0,17.06,17a2.73,2.73,0,0,0,.37-1.56,2.77,2.77,0,0,0-.37-1.56,1.3,1.3,0,0,0-2.12,0,2.85,2.85,0,0,0-.37,1.56A2.81,2.81,0,0,0,14.94,17,1.2,1.2,0,0,0,16,17.55Z"/><path class="cls-3" d="M14,13.06a3.56,3.56,0,0,0-.72,2.38,5.1,5.1,0,0,0,.09.91h1.3a4,4,0,0,1-.1-.91,2.85,2.85,0,0,1,.37-1.56A1.22,1.22,0,0,1,16,13.33a1.35,1.35,0,0,1,.41.07V12.26a2.71,2.71,0,0,0-.41,0A2.47,2.47,0,0,0,14,13.06Z"/></g></g></svg>